<svg xmlns="http://www.w3.org/2000/svg" xmlns:xlink="http://www.w3.org/1999/xlink" xmlns:lucid="lucid" width="1297" height="443"><g transform="translate(1742 1180)" lucid:page-tab-id="0_0"><path d="M-1806.87-1258.84H64v2581.68h-1870.87z" fill="#fff"/><g class="lucid-layer" lucid:layer-id="msa92KJRY-8g" display="block"><path d="M-1744.4-1172a8 8 0 0 1 8-8h1284a8 8 0 0 1 8 8v424a8 8 0 0 1-8 8h-1284a8 8 0 0 1-8-8z" stroke="#000" stroke-opacity="0" fill="#f2f3f5"/><path d="M-1724.4-1152a8 8 0 0 1 8-8h164a8 8 0 0 1 8 8v147.8a8 8 0 0 1-8 8h-164a8 8 0 0 1-8-8z" stroke="#000" stroke-opacity="0" stroke-width="2" fill="#6db1ff"/><use xlink:href="#a" transform="matrix(1,0,0,1,-1719.391500786242,-1155) translate(48.599999999999994 81.775)"/><path d="M-1544.4-912a8 8 0 0 1 8-8h164a8 8 0 0 1 8 8v147.8a8 8 0 0 1-8 8h-164a8 8 0 0 1-8-8z" stroke="#6db1ff" stroke-width="2" fill="#fff"/><use xlink:href="#b" transform="matrix(1,0,0,1,-1539.3915007862424,-915) translate(35.55 81.775)"/><use xlink:href="#c" transform="matrix(1,0,0,1,-1539.3915007862424,-915) translate(78.5 81.775)"/><path d="M-1274.4-1152a8 8 0 0 1 8-8h164a8 8 0 0 1 8 8v147.8a8 8 0 0 1-8 8h-164a8 8 0 0 1-8-8z" stroke="#000" stroke-opacity="0" stroke-width="2" fill="#6db1ff"/><use xlink:href="#d" transform="matrix(1,0,0,1,-1269.3915007862422,-1155) translate(35.05 72.15)"/><use xlink:href="#e" transform="matrix(1,0,0,1,-1269.3915007862422,-1155) translate(40.55 93.75)"/><path d="M-1094.4-912a8 8 0 0 1 8-8h164a8 8 0 0 1 8 8v147.8a8 8 0 0 1-8 8h-164a8 8 0 0 1-8-8z" stroke="#6db1ff" stroke-width="2" fill="#fff"/><use xlink:href="#f" transform="matrix(1,0,0,1,-1089.3915007862422,-915) translate(35.55 81.775)"/><use xlink:href="#g" transform="matrix(1,0,0,1,-1089.3915007862422,-915) translate(91.5 81.775)"/><path d="M-824.4-1152a8 8 0 0 1 8-8h164a8 8 0 0 1 8 8v147.8a8 8 0 0 1-8 8h-164a8 8 0 0 1-8-8z" stroke="#000" stroke-opacity="0" stroke-width="2" fill="#6db1ff"/><use xlink:href="#h" transform="matrix(1,0,0,1,-819.391500786242,-1155) translate(40.025 72.15)"/><use xlink:href="#i" transform="matrix(1,0,0,1,-819.391500786242,-1155) translate(82.975 72.15)"/><use xlink:href="#j" transform="matrix(1,0,0,1,-819.391500786242,-1155) translate(36.55 93.75)"/><path d="M-644.4-912a8 8 0 0 1 8-8h164a8 8 0 0 1 8 8v147.8a8 8 0 0 1-8 8h-164a8 8 0 0 1-8-8z" stroke="#6db1ff" stroke-width="2" fill="#fff"/><use xlink:href="#k" transform="matrix(1,0,0,1,-639.391500786242,-915) translate(35.599999999999994 72.15)"/><use xlink:href="#l" transform="matrix(1,0,0,1,-639.391500786242,-915) translate(78.55 72.15)"/><use xlink:href="#m" transform="matrix(1,0,0,1,-639.391500786242,-915) translate(53.525 93.75)"/><path d="M-1634.4-987.2v149.1h88" stroke="#979ea8" stroke-width="2" fill="none"/><path d="M-1634.4-994.24l7.64 12.92h-15.27z" stroke="#979ea8" stroke-width="2" fill="#979ea8"/><path d="M-1545.4-837.1h-1.02v-2h1.03z" stroke="#979ea8" stroke-width=".05" fill="#979ea8"/><path d="M-1184.4-987.2v149.1h88" stroke="#979ea8" stroke-width="2" fill="none"/><path d="M-1184.4-994.24l7.64 12.92h-15.27z" stroke="#979ea8" stroke-width="2" fill="#979ea8"/><path d="M-1095.4-837.1h-1.02v-2h1.03z" stroke="#979ea8" stroke-width=".05" fill="#979ea8"/><path d="M-734.34-987.2l.95 149.1h87" stroke="#979ea8" stroke-width="2" fill="none"/><path d="M-734.38-994.24l7.72 12.87-15.27.1z" stroke="#979ea8" stroke-width="2" fill="#979ea8"/><path d="M-645.4-837.1h-1.02v-2h1.03z" stroke="#979ea8" stroke-width=".05" fill="#979ea8"/><path d="M-1459.4-1078.1a4.85 4.85 0 0 1 4.86-4.85h70.77a4.3 4.3 0 0 0 4.3-4.3 2.3 2.3 0 0 1 3.58-1.9l9.86 6.6a5.36 5.36 0 0 1 0 8.9l-9.85 6.6a2.3 2.3 0 0 1-3.57-1.9 4.3 4.3 0 0 0-4.3-4.3h-70.78a4.85 4.85 0 0 1-4.84-4.85zM-1009.4-1078.1a4.85 4.85 0 0 1 4.86-4.85h70.77a4.3 4.3 0 0 0 4.3-4.3 2.3 2.3 0 0 1 3.58-1.9l9.86 6.6a5.36 5.36 0 0 1 0 8.9l-9.85 6.6a2.3 2.3 0 0 1-3.57-1.9 4.3 4.3 0 0 0-4.3-4.3h-70.77a4.85 4.85 0 0 1-4.85-4.85z" stroke="#979ea8" stroke-width="2" fill-opacity="0"/></g><defs><path fill="#fff" d="M233-177c-1 41-23 64-60 70L243 0h-38l-65-103H63V0H30v-248c88 3 205-21 203 71zM63-129c60-2 137 13 137-47 0-61-80-42-137-45v92" id="n"/><path fill="#fff" d="M100-194c63 0 86 42 84 106H49c0 40 14 67 53 68 26 1 43-12 49-29l28 8c-11 28-37 45-77 45C44 4 14-33 15-96c1-61 26-98 85-98zm52 81c6-60-76-77-97-28-3 7-6 17-6 28h103" id="o"/><path fill="#fff" d="M59-47c-2 24 18 29 38 22v24C64 9 27 4 27-40v-127H5v-23h24l9-43h21v43h35v23H59v120" id="p"/><path fill="#fff" d="M114-163C36-179 61-72 57 0H25l-1-190h30c1 12-1 29 2 39 6-27 23-49 58-41v29" id="q"/><path fill="#fff" d="M24-231v-30h32v30H24zM24 0v-190h32V0H24" id="r"/><path fill="#fff" d="M108 0H70L1-190h34L89-25l56-165h34" id="s"/><g id="a"><use transform="matrix(0.05,0,0,0.05,0,0)" xlink:href="#n"/><use transform="matrix(0.05,0,0,0.05,12.950000000000001,0)" xlink:href="#o"/><use transform="matrix(0.05,0,0,0.05,22.950000000000003,0)" xlink:href="#p"/><use transform="matrix(0.05,0,0,0.05,27.950000000000003,0)" xlink:href="#q"/><use transform="matrix(0.05,0,0,0.05,33.900000000000006,0)" xlink:href="#r"/><use transform="matrix(0.05,0,0,0.05,37.85000000000001,0)" xlink:href="#o"/><use transform="matrix(0.05,0,0,0.05,47.85000000000001,0)" xlink:href="#s"/><use transform="matrix(0.05,0,0,0.05,56.85,0)" xlink:href="#o"/><use transform="matrix(0.05,0,0,0.05,66.85000000000001,0)" xlink:href="#q"/></g><path fill="#1071e5" d="M30-248c118-7 216 8 213 122C240-48 200 0 122 0H30v-248zM63-27c89 8 146-16 146-99s-60-101-146-95v194" id="t"/><path fill="#1071e5" d="M141-36C126-15 110 5 73 4 37 3 15-17 15-53c-1-64 63-63 125-63 3-35-9-54-41-54-24 1-41 7-42 31l-33-3c5-37 33-52 76-52 45 0 72 20 72 64v82c-1 20 7 32 28 27v20c-31 9-61-2-59-35zM48-53c0 20 12 33 32 33 41-3 63-29 60-74-43 2-92-5-92 41" id="u"/><path fill="#1071e5" d="M59-47c-2 24 18 29 38 22v24C64 9 27 4 27-40v-127H5v-23h24l9-43h21v43h35v23H59v120" id="v"/><g id="b"><use transform="matrix(0.05,0,0,0.05,0,0)" xlink:href="#t"/><use transform="matrix(0.05,0,0,0.05,12.950000000000001,0)" xlink:href="#u"/><use transform="matrix(0.05,0,0,0.05,22.950000000000003,0)" xlink:href="#v"/><use transform="matrix(0.05,0,0,0.05,27.950000000000003,0)" xlink:href="#u"/></g><path fill="#1071e5" d="M30 0v-248h33v221h125V0H30" id="w"/><path fill="#1071e5" d="M100-194c62-1 85 37 85 99 1 63-27 99-86 99S16-35 15-95c0-66 28-99 85-99zM99-20c44 1 53-31 53-75 0-43-8-75-51-75s-53 32-53 75 10 74 51 75" id="x"/><path fill="#1071e5" d="M85-194c31 0 48 13 60 33l-1-100h32l1 261h-30c-2-10 0-23-3-31C134-8 116 4 85 4 32 4 16-35 15-94c0-66 23-100 70-100zm9 24c-40 0-46 34-46 75 0 40 6 74 45 74 42 0 51-32 51-76 0-42-9-74-50-73" id="y"/><path fill="#1071e5" d="M100-194c63 0 86 42 84 106H49c0 40 14 67 53 68 26 1 43-12 49-29l28 8c-11 28-37 45-77 45C44 4 14-33 15-96c1-61 26-98 85-98zm52 81c6-60-76-77-97-28-3 7-6 17-6 28h103" id="z"/><path fill="#1071e5" d="M114-163C36-179 61-72 57 0H25l-1-190h30c1 12-1 29 2 39 6-27 23-49 58-41v29" id="A"/><g id="c"><use transform="matrix(0.05,0,0,0.05,0,0)" xlink:href="#w"/><use transform="matrix(0.05,0,0,0.05,10,0)" xlink:href="#x"/><use transform="matrix(0.05,0,0,0.05,20,0)" xlink:href="#u"/><use transform="matrix(0.05,0,0,0.05,30,0)" xlink:href="#y"/><use transform="matrix(0.05,0,0,0.05,40,0)" xlink:href="#z"/><use transform="matrix(0.05,0,0,0.05,50,0)" xlink:href="#A"/></g><path fill="#fff" d="M30 0v-248h187v28H63v79h144v27H63v87h162V0H30" id="B"/><path fill="#fff" d="M210-169c-67 3-38 105-44 169h-31v-121c0-29-5-50-35-48C34-165 62-65 56 0H25l-1-190h30c1 10-1 24 2 32 10-44 99-50 107 0 11-21 27-35 58-36 85-2 47 119 55 194h-31v-121c0-29-5-49-35-48" id="C"/><path fill="#fff" d="M115-194c53 0 69 39 70 98 0 66-23 100-70 100C84 3 66-7 56-30L54 0H23l1-261h32v101c10-23 28-34 59-34zm-8 174c40 0 45-34 45-75 0-40-5-75-45-74-42 0-51 32-51 76 0 43 10 73 51 73" id="D"/><path fill="#fff" d="M85-194c31 0 48 13 60 33l-1-100h32l1 261h-30c-2-10 0-23-3-31C134-8 116 4 85 4 32 4 16-35 15-94c0-66 23-100 70-100zm9 24c-40 0-46 34-46 75 0 40 6 74 45 74 42 0 51-32 51-76 0-42-9-74-50-73" id="E"/><path fill="#fff" d="M117-194c89-4 53 116 60 194h-32v-121c0-31-8-49-39-48C34-167 62-67 57 0H25l-1-190h30c1 10-1 24 2 32 11-22 29-35 61-36" id="F"/><path fill="#fff" d="M177-190C167-65 218 103 67 71c-23-6-38-20-44-43l32-5c15 47 100 32 89-28v-30C133-14 115 1 83 1 29 1 15-40 15-95c0-56 16-97 71-98 29-1 48 16 59 35 1-10 0-23 2-32h30zM94-22c36 0 50-32 50-73 0-42-14-75-50-75-39 0-46 34-46 75s6 73 46 73" id="G"/><path fill="#fff" d="M135-143c-3-34-86-38-87 0 15 53 115 12 119 90S17 21 10-45l28-5c4 36 97 45 98 0-10-56-113-15-118-90-4-57 82-63 122-42 12 7 21 19 24 35" id="H"/><g id="d"><use transform="matrix(0.05,0,0,0.05,0,0)" xlink:href="#B"/><use transform="matrix(0.05,0,0,0.05,12,0)" xlink:href="#C"/><use transform="matrix(0.05,0,0,0.05,26.950000000000003,0)" xlink:href="#D"/><use transform="matrix(0.05,0,0,0.05,36.95,0)" xlink:href="#o"/><use transform="matrix(0.05,0,0,0.05,46.95,0)" xlink:href="#E"/><use transform="matrix(0.05,0,0,0.05,56.95,0)" xlink:href="#E"/><use transform="matrix(0.05,0,0,0.05,66.95,0)" xlink:href="#r"/><use transform="matrix(0.05,0,0,0.05,70.9,0)" xlink:href="#F"/><use transform="matrix(0.05,0,0,0.05,80.9,0)" xlink:href="#G"/><use transform="matrix(0.05,0,0,0.05,90.9,0)" xlink:href="#H"/></g><path fill="#fff" d="M143 4C61 4 22-44 18-125c-5-107 100-154 193-111 17 8 29 25 37 43l-32 9c-13-25-37-40-76-40-61 0-88 39-88 99 0 61 29 100 91 101 35 0 62-11 79-27v-45h-74v-28h105v86C228-13 192 4 143 4" id="I"/><path fill="#fff" d="M141-36C126-15 110 5 73 4 37 3 15-17 15-53c-1-64 63-63 125-63 3-35-9-54-41-54-24 1-41 7-42 31l-33-3c5-37 33-52 76-52 45 0 72 20 72 64v82c-1 20 7 32 28 27v20c-31 9-61-2-59-35zM48-53c0 20 12 33 32 33 41-3 63-29 60-74-43 2-92-5-92 41" id="J"/><path fill="#fff" d="M100-194c62-1 85 37 85 99 1 63-27 99-86 99S16-35 15-95c0-66 28-99 85-99zM99-20c44 1 53-31 53-75 0-43-8-75-51-75s-53 32-53 75 10 74 51 75" id="K"/><g id="e"><use transform="matrix(0.05,0,0,0.05,0,0)" xlink:href="#I"/><use transform="matrix(0.05,0,0,0.05,14,0)" xlink:href="#o"/><use transform="matrix(0.05,0,0,0.05,24,0)" xlink:href="#F"/><use transform="matrix(0.05,0,0,0.05,34,0)" xlink:href="#o"/><use transform="matrix(0.05,0,0,0.05,44,0)" xlink:href="#q"/><use transform="matrix(0.05,0,0,0.05,49.95,0)" xlink:href="#J"/><use transform="matrix(0.05,0,0,0.05,59.95,0)" xlink:href="#p"/><use transform="matrix(0.05,0,0,0.05,64.95,0)" xlink:href="#r"/><use transform="matrix(0.05,0,0,0.05,68.9,0)" xlink:href="#K"/><use transform="matrix(0.05,0,0,0.05,78.9,0)" xlink:href="#F"/></g><path fill="#1071e5" d="M137 0h-34L2-248h35l83 218 83-218h36" id="L"/><path fill="#1071e5" d="M96-169c-40 0-48 33-48 73s9 75 48 75c24 0 41-14 43-38l32 2c-6 37-31 61-74 61-59 0-76-41-82-99-10-93 101-131 147-64 4 7 5 14 7 22l-32 3c-4-21-16-35-41-35" id="M"/><g id="f"><use transform="matrix(0.05,0,0,0.05,0,0)" xlink:href="#L"/><use transform="matrix(0.05,0,0,0.05,11,0)" xlink:href="#z"/><use transform="matrix(0.05,0,0,0.05,21,0)" xlink:href="#M"/><use transform="matrix(0.05,0,0,0.05,30,0)" xlink:href="#v"/><use transform="matrix(0.05,0,0,0.05,35,0)" xlink:href="#x"/><use transform="matrix(0.05,0,0,0.05,45,0)" xlink:href="#A"/></g><path fill="#1071e5" d="M185-189c-5-48-123-54-124 2 14 75 158 14 163 119 3 78-121 87-175 55-17-10-28-26-33-46l33-7c5 56 141 63 141-1 0-78-155-14-162-118-5-82 145-84 179-34 5 7 8 16 11 25" id="N"/><g id="g"><use transform="matrix(0.05,0,0,0.05,0,0)" xlink:href="#N"/><use transform="matrix(0.05,0,0,0.05,12,0)" xlink:href="#v"/><use transform="matrix(0.05,0,0,0.05,17,0)" xlink:href="#x"/><use transform="matrix(0.05,0,0,0.05,27,0)" xlink:href="#A"/><use transform="matrix(0.05,0,0,0.05,32.95,0)" xlink:href="#z"/></g><path fill="#fff" d="M212-179c-10-28-35-45-73-45-59 0-87 40-87 99 0 60 29 101 89 101 43 0 62-24 78-52l27 14C228-24 195 4 139 4 59 4 22-46 18-125c-6-104 99-153 187-111 19 9 31 26 39 46" id="O"/><path fill="#fff" d="M106-169C34-169 62-67 57 0H25v-261h32l-1 103c12-21 28-36 61-36 89 0 53 116 60 194h-32v-121c2-32-8-49-39-48" id="P"/><g id="h"><use transform="matrix(0.05,0,0,0.05,0,0)" xlink:href="#O"/><use transform="matrix(0.05,0,0,0.05,12.950000000000001,0)" xlink:href="#P"/><use transform="matrix(0.05,0,0,0.05,22.950000000000003,0)" xlink:href="#J"/><use transform="matrix(0.05,0,0,0.05,32.95,0)" xlink:href="#p"/></g><path fill="#fff" d="M205 0l-28-72H64L36 0H1l101-248h38L239 0h-34zm-38-99l-47-123c-12 45-31 82-46 123h93" id="Q"/><g id="i"><use transform="matrix(0.05,0,0,0.05,0,0)" xlink:href="#Q"/><use transform="matrix(0.05,0,0,0.05,12,0)" xlink:href="#G"/><use transform="matrix(0.05,0,0,0.05,22,0)" xlink:href="#o"/><use transform="matrix(0.05,0,0,0.05,32,0)" xlink:href="#F"/><use transform="matrix(0.05,0,0,0.05,42,0)" xlink:href="#p"/></g><path fill="#fff" d="M33 0v-248h34V0H33" id="R"/><g id="j"><use transform="matrix(0.05,0,0,0.05,0,0)" xlink:href="#R"/><use transform="matrix(0.05,0,0,0.05,5,0)" xlink:href="#F"/><use transform="matrix(0.05,0,0,0.05,15,0)" xlink:href="#H"/><use transform="matrix(0.05,0,0,0.05,24,0)" xlink:href="#p"/><use transform="matrix(0.05,0,0,0.05,29,0)" xlink:href="#J"/><use transform="matrix(0.05,0,0,0.05,39,0)" xlink:href="#F"/><use transform="matrix(0.05,0,0,0.05,49,0)" xlink:href="#p"/><use transform="matrix(0.05,0,0,0.05,54,0)" xlink:href="#r"/><use transform="matrix(0.05,0,0,0.05,57.95,0)" xlink:href="#J"/><use transform="matrix(0.05,0,0,0.05,67.95,0)" xlink:href="#p"/><use transform="matrix(0.05,0,0,0.05,72.95,0)" xlink:href="#r"/><use transform="matrix(0.05,0,0,0.05,76.9,0)" xlink:href="#K"/><use transform="matrix(0.05,0,0,0.05,86.9,0)" xlink:href="#F"/></g><path fill="#1071e5" d="M212-179c-10-28-35-45-73-45-59 0-87 40-87 99 0 60 29 101 89 101 43 0 62-24 78-52l27 14C228-24 195 4 139 4 59 4 22-46 18-125c-6-104 99-153 187-111 19 9 31 26 39 46" id="S"/><path fill="#1071e5" d="M106-169C34-169 62-67 57 0H25v-261h32l-1 103c12-21 28-36 61-36 89 0 53 116 60 194h-32v-121c2-32-8-49-39-48" id="T"/><g id="k"><use transform="matrix(0.05,0,0,0.05,0,0)" xlink:href="#S"/><use transform="matrix(0.05,0,0,0.05,12.950000000000001,0)" xlink:href="#T"/><use transform="matrix(0.05,0,0,0.05,22.950000000000003,0)" xlink:href="#u"/><use transform="matrix(0.05,0,0,0.05,32.95,0)" xlink:href="#v"/></g><path fill="#1071e5" d="M197 0v-115H63V0H30v-248h33v105h134v-105h34V0h-34" id="U"/><path fill="#1071e5" d="M24-231v-30h32v30H24zM24 0v-190h32V0H24" id="V"/><path fill="#1071e5" d="M135-143c-3-34-86-38-87 0 15 53 115 12 119 90S17 21 10-45l28-5c4 36 97 45 98 0-10-56-113-15-118-90-4-57 82-63 122-42 12 7 21 19 24 35" id="W"/><path fill="#1071e5" d="M179-190L93 31C79 59 56 82 12 73V49c39 6 53-20 64-50L1-190h34L92-34l54-156h33" id="X"/><g id="l"><use transform="matrix(0.05,0,0,0.05,0,0)" xlink:href="#U"/><use transform="matrix(0.05,0,0,0.05,12.950000000000001,0)" xlink:href="#V"/><use transform="matrix(0.05,0,0,0.05,16.900000000000002,0)" xlink:href="#W"/><use transform="matrix(0.05,0,0,0.05,25.900000000000002,0)" xlink:href="#v"/><use transform="matrix(0.05,0,0,0.05,30.900000000000002,0)" xlink:href="#x"/><use transform="matrix(0.05,0,0,0.05,40.900000000000006,0)" xlink:href="#A"/><use transform="matrix(0.05,0,0,0.05,46.85000000000001,0)" xlink:href="#X"/></g><path fill="#1071e5" d="M177-190C167-65 218 103 67 71c-23-6-38-20-44-43l32-5c15 47 100 32 89-28v-30C133-14 115 1 83 1 29 1 15-40 15-95c0-56 16-97 71-98 29-1 48 16 59 35 1-10 0-23 2-32h30zM94-22c36 0 50-32 50-73 0-42-14-75-50-75-39 0-46 34-46 75s6 73 46 73" id="Y"/><g id="m"><use transform="matrix(0.05,0,0,0.05,0,0)" xlink:href="#N"/><use transform="matrix(0.05,0,0,0.05,12,0)" xlink:href="#v"/><use transform="matrix(0.05,0,0,0.05,17,0)" xlink:href="#x"/><use transform="matrix(0.05,0,0,0.05,27,0)" xlink:href="#A"/><use transform="matrix(0.05,0,0,0.05,32.95,0)" xlink:href="#u"/><use transform="matrix(0.05,0,0,0.05,42.95,0)" xlink:href="#Y"/><use transform="matrix(0.05,0,0,0.05,52.95,0)" xlink:href="#z"/></g></defs></g></svg>